<svg height="458pt" viewBox="-43 0 458 458.63535" width="458pt" xmlns="http://www.w3.org/2000/svg"><path d="m260.347656 268.5c-2.980468-9.480469-8.816406-17.808594-16.710937-23.847656-9.390625-6.777344-17.359375-15.332032-23.457031-25.175782-2.746094-4.691406-5.261719-9.515624-7.527344-14.457031-4.574219-10.636719-7.019532-22.070312-7.199219-33.648437-.933594-22.28125-17.089844-40.984375-38.996094-45.148438-21.910156-4.164062-43.796875 7.308594-52.839843 27.695313-9.042969 20.386719-2.851563 44.3125 14.941406 57.757812 9.328125 6.71875 17.234375 15.21875 23.253906 25.015625 2.753906 4.695313 5.273438 9.535156 7.542969 14.480469 4.589843 10.546875 7.035156 21.898437 7.203125 33.398437.730468 18.640626 12.191406 35.167969 29.394531 42.382813 17.199219 7.214844 37.023437 3.8125 50.832031-8.726563 13.8125-12.539062 19.105469-31.945312 13.578125-49.757812zm0 0" fill="#787d82"/><path d="m243.636719 244.652344c-7.15625-5.289063-13.550781-11.53125-19.007813-18.5625-5.882812-.089844-11.746094.773437-17.351562 2.5625-11.050782 3.488281-20.753906 10.300781-27.792969 19.503906-4.628906 6.128906-9.820313 11.816406-15.503906 16.984375 1.488281 6.394531 2.34375 12.917969 2.558593 19.480469.847657 22.277344 16.917969 41.039062 38.800782 45.296875 21.886718 4.257812 43.820312-7.113281 52.953125-27.449219 9.132812-20.339844 3.0625-44.289062-14.65625-57.816406zm0 0" fill="#6f7478"/><path d="m261.070312 39.195312c-11.050781 3.488282-20.757812 10.296876-27.792968 19.503907-7.910156 10.953125-17.890625 20.253906-29.375 27.367187-5.472656 3.199219-11.09375 6.132813-16.859375 8.800782-12.40625 5.339843-25.746094 8.191406-39.253907 8.390624-25.996093 1.085938-47.820312 19.933594-52.679687 45.492188-4.855469 25.5625 8.527344 51.101562 32.3125 61.652344 23.78125 10.546875 51.699219 3.328125 67.382813-17.429688 7.839843-10.886718 17.757812-20.109375 29.183593-27.136718 5.488281-3.199219 11.121094-6.132813 16.898438-8.800782 12.304687-5.339844 25.546875-8.1875 38.957031-8.382812 21.734375-.867188 41-14.242188 49.414062-34.300782 8.410157-20.058593 4.445313-43.175781-10.171874-59.285156-14.613282-16.109375-37.238282-22.296875-58.015626-15.871094zm0 0" fill="#b9b9b9"/><path d="m174.101562 159.195312c0 13.253907-10.746093 24-24 24-13.253906 0-24-10.746093-24-24 0-13.253906 10.746094-24 24-24 13.253907 0 24 10.746094 24 24zm0 0" fill="#787d82"/><path d="m301.8125 92.667969c0 13.253906-10.746094 24-24 24s-24-10.746094-24-24c0-13.253907 10.746094-24 24-24s24 10.746093 24 24zm0 0" fill="#787d82"/><g fill="#fbd699"><path d="m333.828125 32.769531c-1.855469.003907-3.652344-.640625-5.085937-1.820312-8.535157-7.046875-18.445313-12.238281-29.097657-15.242188-2.761719-.769531-4.902343-2.957031-5.609375-5.738281-.707031-2.777344.128906-5.722656 2.191406-7.71875 2.058594-1.992188 5.03125-2.730469 7.785157-1.933594 12.777343 3.605469 24.664062 9.832032 34.90625 18.277344 2.605469 2.148438 3.585937 5.703125 2.445312 8.878906-1.144531 3.179688-4.15625 5.300782-7.535156 5.296875zm0 0"/><path d="m318.476562 178.714844c-3.6875.003906-6.898437-2.511719-7.777343-6.09375-.878907-3.582032.804687-7.300782 4.074219-9 39.140624-20.449219 54.347656-68.722656 33.992187-107.914063-1.410156-2.542969-1.332031-5.648437.210937-8.117187 1.539063-2.464844 4.296876-3.902344 7.199219-3.75 2.902344.148437 5.496094 1.863281 6.773438 4.476562 24.429687 47.03125 6.175781 104.960938-40.800781 129.496094-1.132813.589844-2.394532.902344-3.671876.902344zm0 0"/><path d="m67.070312 458.636719c-.910156-.003907-1.808593-.160157-2.664062-.464844-9.402344-3.3125-18.234375-8.0625-26.175781-14.082031-2.320313-1.710938-3.539063-4.539063-3.1875-7.402344.347656-2.859375 2.207031-5.3125 4.871093-6.417969 2.660157-1.105469 5.714844-.695312 7.988282 1.078125 6.625 5.007813 13.988281 8.953125 21.824218 11.703125 3.683594 1.289063 5.902344 5.050781 5.246094 8.898438-.660156 3.851562-4 6.664062-7.902344 6.652343zm0 0"/><path d="m18.277344 416.285156c-2.984375 0-5.726563-1.65625-7.105469-4.304687-24.488281-47.023438-6.222656-105 40.800781-129.488281 3.859375-1.699219 8.371094-.113282 10.320313 3.625 1.949219 3.738281.660156 8.347656-2.945313 10.535156-39.183594 20.410156-54.402344 68.726562-33.992187 107.910156 1.292969 2.476562 1.195312 5.449219-.25 7.839844-1.445313 2.390625-4.035157 3.851562-6.828125 3.855468zm0 0"/></g><path d="m207.277344 247.628906c-11.050782 3.484375-20.753906 10.296875-27.792969 19.503906-7.90625 10.949219-17.882813 20.246094-29.367187 27.359376-5.472657 3.199218-11.09375 6.132812-16.863282 8.800781-12.414062 5.332031-25.75 8.183593-39.257812 8.390625-26 1.085937-47.824219 19.9375-52.679688 45.5-4.855468 25.566406 8.535156 51.105468 32.328125 61.648437 23.789063 10.542969 51.707031 3.308594 67.382813-17.460937 7.84375-10.875 17.757812-20.09375 29.175781-27.121094 5.480469-3.199219 11.109375-6.132812 16.898437-8.796875 12.304688-5.34375 25.546876-8.1875 38.960938-8.371094 21.738281-.859375 41.015625-14.230469 49.429688-34.296875 8.414062-20.0625 4.445312-43.1875-10.179688-59.296875-14.621094-16.109375-37.253906-22.292969-58.035156-15.851562zm0 0" fill="#b9b9b9"/><path d="m120.308594 367.628906c0 13.253906-10.746094 24-24 24s-24-10.746094-24-24c0-13.257812 10.746094-24 24-24s24 10.742188 24 24zm0 0" fill="#787d82"/><path d="m248.019531 301.097656c0 13.257813-10.742187 24-24 24-13.253906 0-24-10.742187-24-24 0-13.253906 10.746094-24 24-24 13.257813 0 24 10.746094 24 24zm0 0" fill="#787d82"/></svg>